<?xml version="1.0" standalone="no"?>
<!DOCTYPE svg PUBLIC "-//W3C//DTD SVG 20010904//EN"
 "http://www.w3.org/TR/2001/REC-SVG-20010904/DTD/svg10.dtd">
<svg version="1.0" xmlns="http://www.w3.org/2000/svg"
 width="422.000000pt" height="253.000000pt" viewBox="0 0 422.000000 253.000000"
 preserveAspectRatio="xMidYMid meet">
<metadata>
Created by potrace 1.10, written by Peter Selinger 2001-2011
</metadata>
<g transform="translate(0.000000,253.000000) scale(0.100000,-0.100000)"
fill="#ffa500" stroke="none">
<path d="M527 1989 c-54 -13 -110 -43 -147 -81 -34 -34 -80 -120 -80 -151 0
-26 27 -74 45 -81 25 -9 90 -7 119 4 40 15 74 -3 81 -42 6 -33 -9 -137 -40
-273 -80 -350 -71 -511 34 -582 97 -65 226 -16 289 110 36 72 30 101 -29 158
l-52 50 7 77 c3 42 17 122 30 177 13 55 29 130 36 167 7 37 17 72 24 77 6 5
36 19 66 31 68 27 113 60 151 112 23 32 30 37 35 24 12 -31 -6 -77 -50 -134
-107 -136 -148 -354 -111 -593 33 -222 126 -337 213 -264 31 26 32 30 32 100
0 41 4 85 10 99 15 40 110 159 114 144 2 -7 9 -48 15 -91 12 -85 60 -209 94
-244 12 -11 37 -24 54 -28 28 -6 38 -2 63 23 27 27 30 37 30 94 0 85 12 120
59 176 21 26 47 64 57 85 22 46 32 47 38 5 28 -202 57 -293 112 -345 42 -41
90 -45 122 -10 18 19 22 35 22 94 0 85 9 112 60 178 47 61 94 168 110 253 9
42 11 120 8 232 -5 153 -4 168 11 160 24 -12 48 -42 55 -68 9 -27 -8 -145 -39
-277 -35 -146 -58 -321 -51 -381 16 -138 91 -195 197 -150 45 19 114 92 130
139 7 20 16 37 20 37 3 0 16 -22 27 -48 44 -101 130 -146 267 -140 182 8 327
138 381 342 19 70 17 113 -6 187 -16 53 -30 74 -80 124 -33 33 -60 65 -60 71
0 6 15 14 32 18 22 4 51 26 89 66 55 57 58 59 87 48 24 -9 42 -9 81 1 57 14
87 4 96 -32 7 -26 -4 -97 -35 -237 -56 -252 -68 -408 -37 -480 16 -37 57 -80
94 -99 30 -15 109 -14 142 3 41 22 96 87 116 139 22 57 11 93 -40 132 -18 13
-36 37 -39 52 -12 55 68 440 94 454 8 4 40 19 70 32 67 29 116 76 141 135 28
65 25 95 -13 127 -28 23 -38 26 -73 20 -22 -4 -53 -9 -70 -12 -20 -3 -64 8
-130 33 -166 61 -262 51 -369 -39 -29 -24 -51 -36 -53 -30 -19 56 -100 103
-189 111 -108 8 -252 -62 -326 -160 -15 -20 -43 -72 -63 -116 -55 -125 -48
-238 21 -329 13 -17 24 -34 24 -36 0 -3 -19 -16 -42 -30 -65 -38 -109 -106
-129 -197 -6 -27 -15 -50 -20 -50 -5 0 -18 15 -29 33 -25 39 -23 58 26 297 62
304 64 431 10 513 -40 60 -144 94 -199 66 -60 -32 -137 -122 -137 -161 0 -36
-19 -25 -43 26 -31 65 -68 96 -113 96 -55 0 -70 -24 -76 -122 -6 -92 -12 -109
-69 -180 -20 -26 -43 -64 -49 -83 -16 -47 -34 -39 -38 16 -8 134 -68 313 -115
344 -13 8 -37 18 -54 21 -26 5 -36 1 -56 -20 -20 -22 -25 -39 -29 -109 -3 -46
-11 -95 -18 -108 -16 -28 -89 -123 -99 -127 -4 -1 -15 39 -24 90 -21 119 -56
204 -101 246 -44 40 -83 42 -116 7 l-24 -25 -27 30 c-32 35 -69 39 -137 15
-42 -15 -46 -14 -130 16 -167 60 -206 67 -285 48z m242 -70 c116 -44 137 -46
198 -23 80 31 121 -6 93 -85 -16 -45 -57 -101 -74 -101 -8 0 -16 -6 -19 -14
-5 -13 -78 -43 -129 -53 -16 -3 -28 -6 -28 -7 0 -4 -47 -232 -70 -341 -29
-133 -25 -225 10 -254 14 -11 30 -20 37 -21 15 0 33 -32 33 -57 0 -23 -22 -73
-32 -73 -5 0 -8 -6 -8 -14 0 -22 -67 -73 -114 -86 -38 -10 -48 -9 -90 10 -111
53 -122 200 -41 555 64 284 61 347 -19 363 -28 5 -49 4 -66 -5 -49 -25 -120
-8 -120 29 0 22 24 88 32 88 4 0 8 6 8 13 0 32 84 90 160 111 70 19 109 13
239 -35z m1615 12 c50 -22 68 -48 85 -129 14 -69 2 -175 -49 -432 -48 -235
-49 -262 -15 -302 28 -33 31 -63 13 -105 -16 -37 -81 -103 -101 -103 -9 0 -19
-5 -22 -10 -9 -15 -68 -12 -93 6 -12 8 -22 23 -22 33 0 9 -6 23 -12 30 -9 8
-12 41 -11 99 1 89 12 154 59 372 15 70 27 160 28 203 1 76 0 79 -30 107 -17
15 -37 29 -44 32 -15 5 -16 74 -1 92 6 7 9 15 6 17 -7 8 79 87 106 98 36 14
53 13 103 -8z m704 -11 c154 -75 34 -378 -133 -336 -22 6 -25 12 -25 50 0 36
-5 48 -27 66 -34 27 -65 23 -73 -10 -11 -44 1 -64 72 -125 39 -33 99 -88 133
-121 55 -54 64 -69 80 -129 16 -58 17 -75 6 -126 -28 -137 -110 -256 -207
-303 -21 -10 -47 -23 -57 -28 -11 -5 -49 -12 -86 -15 -55 -5 -79 -1 -127 16
-72 27 -89 42 -116 100 -30 65 -28 141 5 211 42 89 97 130 172 130 29 0 34 -4
40 -28 3 -16 1 -41 -5 -56 -16 -43 -12 -58 26 -100 28 -31 44 -40 79 -44 41
-4 44 -3 51 22 8 32 -3 96 -16 96 -6 0 -10 6 -10 13 -1 6 -26 32 -57 57 -31
25 -67 55 -80 68 -13 12 -27 22 -31 22 -16 0 -71 66 -86 104 -9 21 -16 66 -16
100 0 60 3 69 68 204 18 38 129 145 142 137 5 -3 10 -1 12 4 1 5 28 19 58 30
67 25 145 22 208 -9z m517 -21 c125 -44 130 -45 174 -23 43 21 89 11 97 -23 6
-23 2 -36 -29 -102 -18 -38 -76 -78 -147 -104 l-64 -23 -12 -59 c-6 -33 -23
-114 -37 -180 -37 -174 -42 -220 -27 -265 9 -28 22 -44 45 -54 18 -9 35 -25
38 -37 5 -20 -10 -79 -23 -89 -3 -3 -9 -12 -13 -21 -19 -54 -132 -95 -185 -68
-113 56 -123 174 -42 539 50 227 52 265 16 299 -27 26 -90 31 -124 10 -30 -19
-76 -1 -80 31 -7 47 17 97 69 144 28 25 59 46 68 46 9 0 21 4 27 9 13 13 62
19 104 13 19 -3 85 -22 145 -43z m-2381 -23 c108 -92 143 -531 56 -688 -6 -10
-10 -25 -10 -33 0 -8 -3 -15 -8 -15 -4 0 -13 -12 -19 -27 -7 -16 -29 -45 -49
-66 -36 -37 -36 -40 -43 -142 -3 -57 -9 -107 -14 -111 -13 -14 -67 -7 -87 11
-11 10 -22 27 -26 39 -3 11 -15 40 -25 64 -63 139 -59 454 7 586 7 16 14 35
14 43 0 8 4 11 10 8 5 -3 7 0 5 7 -3 8 12 33 33 56 54 59 60 76 65 180 3 95
10 111 48 112 9 0 28 -11 43 -24z m376 10 c15 -3 24 -17 59 -94 51 -111 69
-353 38 -497 -18 -86 -70 -198 -103 -224 -13 -10 -24 -22 -24 -27 0 -4 -7 -15
-16 -25 -10 -11 -18 -49 -23 -118 -4 -56 -11 -104 -14 -108 -11 -11 -70 -5
-82 9 -23 24 -73 152 -85 218 -19 102 -17 292 4 375 22 85 72 194 91 202 8 3
15 11 15 19 0 7 10 20 21 28 25 17 38 73 39 163 0 66 19 100 49 88 9 -4 23 -8
31 -9z m418 -2 c12 -8 22 -22 22 -30 0 -8 4 -14 9 -14 5 0 11 -10 14 -22 3
-13 16 -50 28 -83 17 -47 23 -91 27 -198 5 -153 -7 -252 -41 -327 -12 -25 -21
-50 -22 -57 0 -12 -65 -102 -93 -130 -9 -9 -16 -45 -19 -101 -6 -126 -8 -132
-43 -132 -41 0 -74 35 -103 110 -38 99 -50 173 -51 305 0 123 13 210 44 280 9
22 22 51 27 65 6 14 32 51 57 82 l47 56 5 94 c3 51 7 99 10 106 5 17 55 15 82
-4z m872 -235 c0 -11 -4 -17 -10 -14 -5 3 -10 13 -10 21 0 8 5 14 10 14 6 0
10 -9 10 -21z m-61 -454 c36 -42 42 -85 11 -85 -31 0 -70 44 -70 78 0 53 17
55 59 7z"/>
</g>
</svg>
